<svg width="1600" height="1200" xmlns="http://www.w3.org/2000/svg">
 <!-- Created with Method Draw - http://github.com/duopixel/Method-Draw/ -->

 <g>
  <title>background</title>
  <rect fill="#fff" id="canvas_background" height="1202" width="1602" y="-1" x="-1"/>
  <g display="none" overflow="visible" y="0" x="0" height="100%" width="100%" id="canvasGrid">
   <rect fill="url(#gridpattern)" stroke-width="0" y="0" x="0" height="100%" width="100%"/>
  </g>
 </g>
 <g>
  <title>Layer 1</title>
  <ellipse ry="600" rx="600" id="svg_24" cy="600.000005" cx="799.999981" stroke-width="0" stroke="#000" fill="#d5e5ed"/>
  <g id="svg_23">
   <g transform="matrix(30.864195176112844,0,0,30.864195176112844,0,0) " id="svg_12">
    <rect x="13.920001" y="7.440001" id="svg_14" height="24" width="24" fill="none"/>
   </g>
   <g transform="matrix(30.864195176112844,0,0,30.864195176112844,0,0) " id="svg_10">
    <g id="svg_11"/>
    <g id="svg_15">
     <path id="svg_16" d="m21.920001,15.440001l-2,0l0,7c0,1.1 0.9,2 2,2l9,0l0,-2l-9,0l0,-7z" fill="#3F76A3"/>
     <path id="svg_17" d="m33.920001,10.440001l-8,0c-1.1,0 -2,0.9 -2,2l0,6c0,1.1 0.9,2 2,2l8,0c1.1,0 2,-0.9 2,-2l0,-6c0,-1.1 -0.9,-2 -2,-2zm0,8l-8,0l0,-4l8,0l0,4z" fill="#3F76A3"/>
     <path id="svg_18" d="m17.920001,19.440001l-2,0l0,7c0,1.1 0.9,2 2,2l9,0l0,-2l-9,0l0,-7z" fill="#3F76A3"/>
    </g>
   </g>
   <g transform="matrix(30.864195176112844,0,0,30.864195176112844,0,0) " display="none" id="svg_8">
    <g display="inline" id="svg_9"/>
    <g id="svg_19" display="inline">
     <path id="svg_20" d="m21.920001,15.440001l-2,0l0,7c0,1.1 0.9,2 2,2l9,0l0,-2l-9,0l0,-7z" fill="#3F76A3"/>
     <path id="svg_21" d="m33.920001,10.440001l-8,0c-1.1,0 -2,0.9 -2,2l0,6c0,1.1 0.9,2 2,2l8,0c1.1,0 2,-0.9 2,-2l0,-6c0,-1.1 -0.9,-2 -2,-2zm0,8l-8,0l0,-4l8,0l0,4z" fill="#3F76A3"/>
     <path id="svg_22" d="m17.920001,19.440001l-2,0l0,7c0,1.1 0.9,2 2,2l9,0l0,-2l-9,0l0,-7z" fill="#3F76A3"/>
    </g>
   </g>
  </g>
 </g>
</svg>