<svg width="1600" height="1200" xmlns="http://www.w3.org/2000/svg">
 <!-- Created with Method Draw - http://github.com/duopixel/Method-Draw/ -->

 <g>
  <title>background</title>
  <rect fill="#fff" id="canvas_background" height="1202" width="1602" y="-1" x="-1"/>
  <g display="none" overflow="visible" y="0" x="0" height="100%" width="100%" id="canvasGrid">
   <rect fill="url(#gridpattern)" stroke-width="0" y="0" x="0" height="100%" width="100%"/>
  </g>
 </g>
 <g>
  <title>Layer 1</title>
  <ellipse ry="600" rx="600" id="svg_7" cy="599.999994" cx="799.999991" stroke-width="0" stroke="#000" fill="#d5e5ed"/>
  <g id="svg_6">
   <path id="svg_4" d="m429.629637,229.629668l740.740684,0l0,740.740684l-740.740684,0l0,-740.740684z" fill="none"/>
   <path id="svg_5" d="m911.111082,562.654333c29.938269,-20.679011 50.925922,-54.629625 50.925922,-86.111105c0,-69.753081 -54.012342,-123.456781 -123.456781,-123.456781l-192.90122,0l0,432.098732l217.283934,0c64.506168,0 114.506164,-52.469132 114.506164,-116.9753c0,-46.913577 -26.543208,-87.03703 -66.35802,-105.555548zm-172.839493,-132.407397l92.592586,0c25.617282,0 46.296293,20.679011 46.296293,46.296293s-20.679011,46.296293 -46.296293,46.296293l-92.592586,0l0,-92.592586zm108.024683,277.777757l-108.024683,0l0,-92.592586l108.024683,0c25.617282,0 46.296293,20.679011 46.296293,46.296293s-20.679011,46.296293 -46.296293,46.296293z" fill="#3F76A3"/>
  </g>
 </g>
</svg>