<svg width="1600" height="1200" xmlns="http://www.w3.org/2000/svg">
 <!-- Created with Method Draw - http://github.com/duopixel/Method-Draw/ -->

 <g>
  <title>background</title>
  <rect fill="#fff" id="canvas_background" height="1202" width="1602" y="-1" x="-1"/>
  <g display="none" overflow="visible" y="0" x="0" height="100%" width="100%" id="canvasGrid">
   <rect fill="url(#gridpattern)" stroke-width="0" y="0" x="0" height="100%" width="100%"/>
  </g>
 </g>
 <g>
  <title>Layer 1</title>
  <ellipse ry="600" rx="600" id="svg_8" cy="599.999981" cx="800" stroke-width="0" stroke="#000" fill="#d5e5ed"/>
  <g id="svg_6">
   <path id="svg_4" d="m429.629639,229.629639l740.740684,0l0,740.740684l-740.740684,0l0,-740.740684z" fill="none"/>
   <path id="svg_5" d="m553.086419,476.5432l123.456781,0l0,-123.456781l-123.456781,0l0,123.456781zm185.185171,370.370342l123.456781,0l0,-123.456781l-123.456781,0l0,123.456781zm-185.185171,0l123.456781,0l0,-123.456781l-123.456781,0l0,123.456781zm0,-185.185171l123.456781,0l0,-123.456781l-123.456781,0l0,123.456781zm185.185171,0l123.456781,0l0,-123.456781l-123.456781,0l0,123.456781zm185.185171,-308.641952l0,123.456781l123.456781,0l0,-123.456781l-123.456781,0zm-185.185171,123.456781l123.456781,0l0,-123.456781l-123.456781,0l0,123.456781zm185.185171,185.185171l123.456781,0l0,-123.456781l-123.456781,0l0,123.456781zm0,185.185171l123.456781,0l0,-123.456781l-123.456781,0l0,123.456781z" fill="#3F76A3"/>
  </g>
  <ellipse id="svg_9" cy="408.604367" cx="1886.166422" stroke-width="1.5" stroke="#000" fill="#d5e5ed"/>
 </g>
</svg>