<svg width="1600" height="1200.0000000000002" xmlns="http://www.w3.org/2000/svg">
 <!-- Created with Method Draw - http://github.com/duopixel/Method-Draw/ -->

 <g>
  <title>background</title>
  <rect fill="#fff" id="canvas_background" height="1202" width="1602" y="-1" x="-1"/>
  <g display="none" overflow="visible" y="0" x="0" height="100%" width="100%" id="canvasGrid">
   <rect fill="url(#gridpattern)" stroke-width="0" y="0" x="0" height="100%" width="100%"/>
  </g>
 </g>
 <g>
  <title>Layer 1</title>
  <ellipse ry="600" rx="600" id="svg_7" cy="599.999964" cx="800.000034" stroke-width="0" stroke="#000" fill="#d5e5ed"/>
  <g id="svg_6">
   <path id="svg_4" d="m429.629639,229.629639l740.740684,0l0,740.740684l-740.740684,0l0,-740.740684z" fill="none"/>
   <path id="svg_5" d="m712.654308,708.024664l174.074061,0l35.185183,92.592586l64.506168,0l-157.716037,-401.234537l-57.407403,0l-157.716037,401.234537l64.506168,0l34.567899,-92.592586zm87.345672,-232.098748l63.888884,170.370357l-127.777768,0l63.888884,-170.370357zm246.913561,-184.567887l-493.827123,0c-33.950615,0 -61.72839,27.777776 -61.72839,61.72839l0,493.827123c0,33.950615 27.777776,61.72839 61.72839,61.72839l493.827123,0c33.950615,0 61.72839,-27.777776 61.72839,-61.72839l0,-493.827123c0,-33.950615 -27.777776,-61.72839 -61.72839,-61.72839zm0,555.555513l-493.827123,0l0,-493.827123l493.827123,0l0,493.827123z" fill="#3F76A3"/>
  </g>
 </g>
</svg>