<svg width="1600" height="1200" xmlns="http://www.w3.org/2000/svg">
 <!-- Created with Method Draw - http://github.com/duopixel/Method-Draw/ -->

 <g>
  <title>background</title>
  <rect fill="#fff" id="canvas_background" height="1202" width="1602" y="-1" x="-1"/>
  <g display="none" overflow="visible" y="0" x="0" height="100%" width="100%" id="canvasGrid">
   <rect fill="url(#gridpattern)" stroke-width="0" y="0" x="0" height="100%" width="100%"/>
  </g>
 </g>
 <g>
  <title>Layer 1</title>
  <ellipse ry="600" rx="600" id="svg_7" cy="599.999995" cx="800.000048" stroke-width="0" stroke="#000" fill="#d5e5ed"/>
  <g id="svg_6">
   <path id="svg_4" d="m429.629639,229.629639l740.740684,0l0,740.740684l-740.740684,0l0,-740.740684z" fill="none"/>
   <path id="svg_5" d="m1026.851815,539.506158c-20.987653,-106.481473 -114.506164,-186.419739 -226.851835,-186.419739c-89.197524,0 -166.666654,50.61728 -205.246898,124.691349c-92.901227,9.876542 -165.123444,88.58024 -165.123444,183.950603c0,102.160486 83.024685,185.185171 185.185171,185.185171l401.234537,0c85.185179,0 154.320976,-69.135797 154.320976,-154.320976c0,-81.481475 -63.2716,-147.530853 -143.518508,-153.086408zm-10.802468,245.678994l-401.234537,0c-68.209871,0 -123.456781,-55.246909 -123.456781,-123.456781c0,-63.2716 47.222219,-116.049374 109.876535,-122.530855l33.024689,-3.395061l15.432098,-29.320985c29.320985,-56.481477 86.728388,-91.66666 150.308631,-91.66666c80.864191,0 150.617272,57.407403 166.358012,136.728385l9.259259,46.296293l47.222219,3.395061c48.148144,3.08642 85.802463,43.518515 85.802463,91.358018c0,50.925922 -41.666663,92.592586 -92.592586,92.592586zm-339.506147,-154.320976l78.703698,0l0,92.592586l89.506166,0l0,-92.592586l78.703698,0l-123.456781,-123.456781l-123.456781,123.456781z" fill="#3F76A3"/>
  </g>
 </g>
</svg>